<mxfile host="app.diagrams.net" agent="Mozilla/5.0 (Windows NT 10.0; Win64; x64) AppleWebKit/537.36 (KHTML, like Gecko) Chrome/135.0.0.0 Safari/537.36" version="26.0.6">
  <diagram name="Page-1" id="3cgVduaGfbdR9CwbvbIO">
    <mxGraphModel dx="880" dy="468" grid="1" gridSize="10" guides="1" tooltips="1" connect="1" arrows="1" fold="1" page="1" pageScale="1" pageWidth="850" pageHeight="1100" math="0" shadow="0">
      <root>
        <mxCell id="0" />
        <mxCell id="1" parent="0" />
        <mxCell id="F1ZpXmMgRoGmj6HplNzn-1" value="User" style="rounded=0;whiteSpace=wrap;html=1;" vertex="1" parent="1">
          <mxGeometry x="140" y="80" width="120" height="60" as="geometry" />
        </mxCell>
        <mxCell id="F1ZpXmMgRoGmj6HplNzn-2" value="Education system" style="ellipse;whiteSpace=wrap;html=1;aspect=fixed;" vertex="1" parent="1">
          <mxGeometry x="345" y="80" width="60" height="60" as="geometry" />
        </mxCell>
        <mxCell id="F1ZpXmMgRoGmj6HplNzn-3" value="education_db" style="shape=process;whiteSpace=wrap;html=1;backgroundOutline=1;" vertex="1" parent="1">
          <mxGeometry x="480" y="80" width="120" height="60" as="geometry" />
        </mxCell>
        <mxCell id="F1ZpXmMgRoGmj6HplNzn-4" value="" style="endArrow=classic;html=1;rounded=0;entryX=0;entryY=0.5;entryDx=0;entryDy=0;" edge="1" parent="1" target="F1ZpXmMgRoGmj6HplNzn-2">
          <mxGeometry width="50" height="50" relative="1" as="geometry">
            <mxPoint x="260" y="110" as="sourcePoint" />
            <mxPoint x="310" y="60" as="targetPoint" />
          </mxGeometry>
        </mxCell>
        <mxCell id="F1ZpXmMgRoGmj6HplNzn-5" value="" style="endArrow=classic;html=1;rounded=0;" edge="1" parent="1" target="F1ZpXmMgRoGmj6HplNzn-3">
          <mxGeometry width="50" height="50" relative="1" as="geometry">
            <mxPoint x="410" y="110" as="sourcePoint" />
            <mxPoint x="460" y="60" as="targetPoint" />
          </mxGeometry>
        </mxCell>
        <mxCell id="F1ZpXmMgRoGmj6HplNzn-6" value="0&#39;level DFD" style="text;html=1;align=center;verticalAlign=middle;resizable=0;points=[];autosize=1;strokeColor=none;fillColor=none;" vertex="1" parent="1">
          <mxGeometry x="245" y="158" width="90" height="30" as="geometry" />
        </mxCell>
        <mxCell id="F1ZpXmMgRoGmj6HplNzn-22" value="" style="endArrow=none;html=1;rounded=0;" edge="1" parent="1">
          <mxGeometry width="50" height="50" relative="1" as="geometry">
            <mxPoint y="200" as="sourcePoint" />
            <mxPoint x="850" y="200" as="targetPoint" />
          </mxGeometry>
        </mxCell>
        <mxCell id="F1ZpXmMgRoGmj6HplNzn-38" value="Student" style="rounded=0;whiteSpace=wrap;html=1;" vertex="1" parent="1">
          <mxGeometry x="145" y="310" width="120" height="60" as="geometry" />
        </mxCell>
        <mxCell id="F1ZpXmMgRoGmj6HplNzn-39" value="Login" style="ellipse;whiteSpace=wrap;html=1;aspect=fixed;" vertex="1" parent="1">
          <mxGeometry x="350" y="310" width="60" height="60" as="geometry" />
        </mxCell>
        <mxCell id="F1ZpXmMgRoGmj6HplNzn-40" value="Student_tbl" style="shape=process;whiteSpace=wrap;html=1;backgroundOutline=1;" vertex="1" parent="1">
          <mxGeometry x="485" y="310" width="120" height="60" as="geometry" />
        </mxCell>
        <mxCell id="F1ZpXmMgRoGmj6HplNzn-41" value="" style="endArrow=classic;html=1;rounded=0;entryX=0;entryY=0.5;entryDx=0;entryDy=0;" edge="1" parent="1" target="F1ZpXmMgRoGmj6HplNzn-39">
          <mxGeometry width="50" height="50" relative="1" as="geometry">
            <mxPoint x="265" y="340" as="sourcePoint" />
            <mxPoint x="315" y="290" as="targetPoint" />
          </mxGeometry>
        </mxCell>
        <mxCell id="F1ZpXmMgRoGmj6HplNzn-42" value="" style="endArrow=classic;html=1;rounded=0;" edge="1" parent="1" target="F1ZpXmMgRoGmj6HplNzn-40">
          <mxGeometry width="50" height="50" relative="1" as="geometry">
            <mxPoint x="415" y="340" as="sourcePoint" />
            <mxPoint x="465" y="290" as="targetPoint" />
          </mxGeometry>
        </mxCell>
        <mxCell id="F1ZpXmMgRoGmj6HplNzn-43" value="Student" style="rounded=0;whiteSpace=wrap;html=1;" vertex="1" parent="1">
          <mxGeometry x="145" y="410" width="120" height="60" as="geometry" />
        </mxCell>
        <mxCell id="F1ZpXmMgRoGmj6HplNzn-44" value="Profile manage" style="ellipse;whiteSpace=wrap;html=1;aspect=fixed;" vertex="1" parent="1">
          <mxGeometry x="350" y="410" width="60" height="60" as="geometry" />
        </mxCell>
        <mxCell id="F1ZpXmMgRoGmj6HplNzn-45" value="Student_tbl" style="shape=process;whiteSpace=wrap;html=1;backgroundOutline=1;" vertex="1" parent="1">
          <mxGeometry x="485" y="410" width="120" height="60" as="geometry" />
        </mxCell>
        <mxCell id="F1ZpXmMgRoGmj6HplNzn-46" value="" style="endArrow=classic;html=1;rounded=0;entryX=0;entryY=0.5;entryDx=0;entryDy=0;" edge="1" parent="1" target="F1ZpXmMgRoGmj6HplNzn-44">
          <mxGeometry width="50" height="50" relative="1" as="geometry">
            <mxPoint x="265" y="440" as="sourcePoint" />
            <mxPoint x="315" y="390" as="targetPoint" />
          </mxGeometry>
        </mxCell>
        <mxCell id="F1ZpXmMgRoGmj6HplNzn-47" value="" style="endArrow=classic;html=1;rounded=0;" edge="1" parent="1" target="F1ZpXmMgRoGmj6HplNzn-45">
          <mxGeometry width="50" height="50" relative="1" as="geometry">
            <mxPoint x="415" y="440" as="sourcePoint" />
            <mxPoint x="465" y="390" as="targetPoint" />
          </mxGeometry>
        </mxCell>
        <mxCell id="F1ZpXmMgRoGmj6HplNzn-48" value="Student" style="rounded=0;whiteSpace=wrap;html=1;" vertex="1" parent="1">
          <mxGeometry x="140" y="500" width="120" height="60" as="geometry" />
        </mxCell>
        <mxCell id="F1ZpXmMgRoGmj6HplNzn-49" value="Course" style="ellipse;whiteSpace=wrap;html=1;aspect=fixed;" vertex="1" parent="1">
          <mxGeometry x="345" y="500" width="60" height="60" as="geometry" />
        </mxCell>
        <mxCell id="F1ZpXmMgRoGmj6HplNzn-50" value="course_tbl" style="shape=process;whiteSpace=wrap;html=1;backgroundOutline=1;" vertex="1" parent="1">
          <mxGeometry x="480" y="500" width="120" height="60" as="geometry" />
        </mxCell>
        <mxCell id="F1ZpXmMgRoGmj6HplNzn-51" value="" style="endArrow=classic;html=1;rounded=0;entryX=0;entryY=0.5;entryDx=0;entryDy=0;" edge="1" parent="1" target="F1ZpXmMgRoGmj6HplNzn-49">
          <mxGeometry width="50" height="50" relative="1" as="geometry">
            <mxPoint x="260" y="530" as="sourcePoint" />
            <mxPoint x="310" y="480" as="targetPoint" />
          </mxGeometry>
        </mxCell>
        <mxCell id="F1ZpXmMgRoGmj6HplNzn-52" value="" style="endArrow=classic;html=1;rounded=0;" edge="1" parent="1" target="F1ZpXmMgRoGmj6HplNzn-50">
          <mxGeometry width="50" height="50" relative="1" as="geometry">
            <mxPoint x="410" y="530" as="sourcePoint" />
            <mxPoint x="460" y="480" as="targetPoint" />
          </mxGeometry>
        </mxCell>
        <mxCell id="F1ZpXmMgRoGmj6HplNzn-53" value="1&#39;level DFD" style="text;html=1;align=center;verticalAlign=middle;resizable=0;points=[];autosize=1;strokeColor=none;fillColor=none;" vertex="1" parent="1">
          <mxGeometry x="205" y="248" width="90" height="30" as="geometry" />
        </mxCell>
        <mxCell id="F1ZpXmMgRoGmj6HplNzn-54" value="Student" style="rounded=0;whiteSpace=wrap;html=1;" vertex="1" parent="1">
          <mxGeometry x="145" y="610" width="120" height="60" as="geometry" />
        </mxCell>
        <mxCell id="F1ZpXmMgRoGmj6HplNzn-55" value="Assignment checking" style="ellipse;whiteSpace=wrap;html=1;aspect=fixed;" vertex="1" parent="1">
          <mxGeometry x="350" y="610" width="60" height="60" as="geometry" />
        </mxCell>
        <mxCell id="F1ZpXmMgRoGmj6HplNzn-56" value="assignment" style="shape=process;whiteSpace=wrap;html=1;backgroundOutline=1;" vertex="1" parent="1">
          <mxGeometry x="485" y="610" width="120" height="60" as="geometry" />
        </mxCell>
        <mxCell id="F1ZpXmMgRoGmj6HplNzn-57" value="" style="endArrow=classic;html=1;rounded=0;entryX=0;entryY=0.5;entryDx=0;entryDy=0;" edge="1" parent="1" target="F1ZpXmMgRoGmj6HplNzn-55">
          <mxGeometry width="50" height="50" relative="1" as="geometry">
            <mxPoint x="265" y="640" as="sourcePoint" />
            <mxPoint x="315" y="590" as="targetPoint" />
          </mxGeometry>
        </mxCell>
        <mxCell id="F1ZpXmMgRoGmj6HplNzn-58" value="" style="endArrow=classic;html=1;rounded=0;" edge="1" parent="1" target="F1ZpXmMgRoGmj6HplNzn-56">
          <mxGeometry width="50" height="50" relative="1" as="geometry">
            <mxPoint x="415" y="640" as="sourcePoint" />
            <mxPoint x="465" y="590" as="targetPoint" />
          </mxGeometry>
        </mxCell>
        <mxCell id="F1ZpXmMgRoGmj6HplNzn-59" value="Student" style="rounded=0;whiteSpace=wrap;html=1;" vertex="1" parent="1">
          <mxGeometry x="150" y="710" width="120" height="60" as="geometry" />
        </mxCell>
        <mxCell id="F1ZpXmMgRoGmj6HplNzn-60" value="Attendance Check" style="ellipse;whiteSpace=wrap;html=1;aspect=fixed;" vertex="1" parent="1">
          <mxGeometry x="355" y="710" width="60" height="60" as="geometry" />
        </mxCell>
        <mxCell id="F1ZpXmMgRoGmj6HplNzn-61" value="attandance" style="shape=process;whiteSpace=wrap;html=1;backgroundOutline=1;" vertex="1" parent="1">
          <mxGeometry x="490" y="710" width="120" height="60" as="geometry" />
        </mxCell>
        <mxCell id="F1ZpXmMgRoGmj6HplNzn-62" value="" style="endArrow=classic;html=1;rounded=0;entryX=0;entryY=0.5;entryDx=0;entryDy=0;" edge="1" parent="1" target="F1ZpXmMgRoGmj6HplNzn-60">
          <mxGeometry width="50" height="50" relative="1" as="geometry">
            <mxPoint x="270" y="740" as="sourcePoint" />
            <mxPoint x="320" y="690" as="targetPoint" />
          </mxGeometry>
        </mxCell>
        <mxCell id="F1ZpXmMgRoGmj6HplNzn-63" value="" style="endArrow=classic;html=1;rounded=0;" edge="1" parent="1" target="F1ZpXmMgRoGmj6HplNzn-61">
          <mxGeometry width="50" height="50" relative="1" as="geometry">
            <mxPoint x="420" y="740" as="sourcePoint" />
            <mxPoint x="470" y="690" as="targetPoint" />
          </mxGeometry>
        </mxCell>
        <mxCell id="F1ZpXmMgRoGmj6HplNzn-74" value="Student" style="rounded=0;whiteSpace=wrap;html=1;" vertex="1" parent="1">
          <mxGeometry x="150" y="810" width="120" height="60" as="geometry" />
        </mxCell>
        <mxCell id="F1ZpXmMgRoGmj6HplNzn-75" value="fees info check" style="ellipse;whiteSpace=wrap;html=1;aspect=fixed;" vertex="1" parent="1">
          <mxGeometry x="355" y="810" width="60" height="60" as="geometry" />
        </mxCell>
        <mxCell id="F1ZpXmMgRoGmj6HplNzn-76" value="fees" style="shape=process;whiteSpace=wrap;html=1;backgroundOutline=1;" vertex="1" parent="1">
          <mxGeometry x="490" y="810" width="120" height="60" as="geometry" />
        </mxCell>
        <mxCell id="F1ZpXmMgRoGmj6HplNzn-77" value="" style="endArrow=classic;html=1;rounded=0;entryX=0;entryY=0.5;entryDx=0;entryDy=0;" edge="1" parent="1" target="F1ZpXmMgRoGmj6HplNzn-75">
          <mxGeometry width="50" height="50" relative="1" as="geometry">
            <mxPoint x="270" y="840" as="sourcePoint" />
            <mxPoint x="320" y="790" as="targetPoint" />
          </mxGeometry>
        </mxCell>
        <mxCell id="F1ZpXmMgRoGmj6HplNzn-78" value="" style="endArrow=classic;html=1;rounded=0;" edge="1" parent="1" target="F1ZpXmMgRoGmj6HplNzn-76">
          <mxGeometry width="50" height="50" relative="1" as="geometry">
            <mxPoint x="420" y="840" as="sourcePoint" />
            <mxPoint x="470" y="790" as="targetPoint" />
          </mxGeometry>
        </mxCell>
        <mxCell id="F1ZpXmMgRoGmj6HplNzn-79" value="" style="endArrow=none;html=1;rounded=0;" edge="1" parent="1">
          <mxGeometry width="50" height="50" relative="1" as="geometry">
            <mxPoint y="930" as="sourcePoint" />
            <mxPoint x="912" y="930" as="targetPoint" />
          </mxGeometry>
        </mxCell>
        <mxCell id="F1ZpXmMgRoGmj6HplNzn-80" value="1&#39;level for faculty&lt;div&gt;&lt;br&gt;&lt;/div&gt;" style="text;html=1;align=center;verticalAlign=middle;resizable=0;points=[];autosize=1;strokeColor=none;fillColor=none;" vertex="1" parent="1">
          <mxGeometry x="415" y="943" width="110" height="40" as="geometry" />
        </mxCell>
        <mxCell id="F1ZpXmMgRoGmj6HplNzn-81" value="faculty" style="rounded=0;whiteSpace=wrap;html=1;" vertex="1" parent="1">
          <mxGeometry x="160" y="990" width="120" height="60" as="geometry" />
        </mxCell>
        <mxCell id="F1ZpXmMgRoGmj6HplNzn-82" value="Lecture conduct" style="ellipse;whiteSpace=wrap;html=1;aspect=fixed;" vertex="1" parent="1">
          <mxGeometry x="365" y="990" width="60" height="60" as="geometry" />
        </mxCell>
        <mxCell id="F1ZpXmMgRoGmj6HplNzn-83" value="lecture_tbl" style="shape=process;whiteSpace=wrap;html=1;backgroundOutline=1;" vertex="1" parent="1">
          <mxGeometry x="500" y="990" width="120" height="60" as="geometry" />
        </mxCell>
        <mxCell id="F1ZpXmMgRoGmj6HplNzn-84" value="" style="endArrow=classic;html=1;rounded=0;entryX=0;entryY=0.5;entryDx=0;entryDy=0;" edge="1" parent="1" target="F1ZpXmMgRoGmj6HplNzn-82">
          <mxGeometry width="50" height="50" relative="1" as="geometry">
            <mxPoint x="280" y="1020" as="sourcePoint" />
            <mxPoint x="330" y="970" as="targetPoint" />
          </mxGeometry>
        </mxCell>
        <mxCell id="F1ZpXmMgRoGmj6HplNzn-85" value="" style="endArrow=classic;html=1;rounded=0;" edge="1" parent="1" target="F1ZpXmMgRoGmj6HplNzn-83">
          <mxGeometry width="50" height="50" relative="1" as="geometry">
            <mxPoint x="430" y="1020" as="sourcePoint" />
            <mxPoint x="480" y="970" as="targetPoint" />
          </mxGeometry>
        </mxCell>
        <mxCell id="F1ZpXmMgRoGmj6HplNzn-101" value="faculty" style="rounded=0;whiteSpace=wrap;html=1;" vertex="1" parent="1">
          <mxGeometry x="160" y="1080" width="120" height="60" as="geometry" />
        </mxCell>
        <mxCell id="F1ZpXmMgRoGmj6HplNzn-102" value="Attendance add" style="ellipse;whiteSpace=wrap;html=1;aspect=fixed;" vertex="1" parent="1">
          <mxGeometry x="365" y="1080" width="60" height="60" as="geometry" />
        </mxCell>
        <mxCell id="F1ZpXmMgRoGmj6HplNzn-103" value="Attendance_tbl" style="shape=process;whiteSpace=wrap;html=1;backgroundOutline=1;" vertex="1" parent="1">
          <mxGeometry x="500" y="1080" width="120" height="60" as="geometry" />
        </mxCell>
        <mxCell id="F1ZpXmMgRoGmj6HplNzn-104" value="" style="endArrow=classic;html=1;rounded=0;entryX=0;entryY=0.5;entryDx=0;entryDy=0;" edge="1" parent="1" target="F1ZpXmMgRoGmj6HplNzn-102">
          <mxGeometry width="50" height="50" relative="1" as="geometry">
            <mxPoint x="280" y="1110" as="sourcePoint" />
            <mxPoint x="330" y="1060" as="targetPoint" />
          </mxGeometry>
        </mxCell>
        <mxCell id="F1ZpXmMgRoGmj6HplNzn-105" value="" style="endArrow=classic;html=1;rounded=0;" edge="1" parent="1" target="F1ZpXmMgRoGmj6HplNzn-103">
          <mxGeometry width="50" height="50" relative="1" as="geometry">
            <mxPoint x="430" y="1110" as="sourcePoint" />
            <mxPoint x="480" y="1060" as="targetPoint" />
          </mxGeometry>
        </mxCell>
        <mxCell id="F1ZpXmMgRoGmj6HplNzn-106" value="faculty" style="rounded=0;whiteSpace=wrap;html=1;" vertex="1" parent="1">
          <mxGeometry x="165" y="1160" width="120" height="60" as="geometry" />
        </mxCell>
        <mxCell id="F1ZpXmMgRoGmj6HplNzn-107" value="Exam Manage" style="ellipse;whiteSpace=wrap;html=1;aspect=fixed;" vertex="1" parent="1">
          <mxGeometry x="370" y="1160" width="60" height="60" as="geometry" />
        </mxCell>
        <mxCell id="F1ZpXmMgRoGmj6HplNzn-108" value="Exam" style="shape=process;whiteSpace=wrap;html=1;backgroundOutline=1;" vertex="1" parent="1">
          <mxGeometry x="505" y="1160" width="120" height="60" as="geometry" />
        </mxCell>
        <mxCell id="F1ZpXmMgRoGmj6HplNzn-109" value="" style="endArrow=classic;html=1;rounded=0;entryX=0;entryY=0.5;entryDx=0;entryDy=0;" edge="1" parent="1" target="F1ZpXmMgRoGmj6HplNzn-107">
          <mxGeometry width="50" height="50" relative="1" as="geometry">
            <mxPoint x="285" y="1190" as="sourcePoint" />
            <mxPoint x="335" y="1140" as="targetPoint" />
          </mxGeometry>
        </mxCell>
        <mxCell id="F1ZpXmMgRoGmj6HplNzn-110" value="" style="endArrow=classic;html=1;rounded=0;" edge="1" parent="1" target="F1ZpXmMgRoGmj6HplNzn-108">
          <mxGeometry width="50" height="50" relative="1" as="geometry">
            <mxPoint x="435" y="1190" as="sourcePoint" />
            <mxPoint x="485" y="1140" as="targetPoint" />
          </mxGeometry>
        </mxCell>
        <mxCell id="F1ZpXmMgRoGmj6HplNzn-111" value="faculty" style="rounded=0;whiteSpace=wrap;html=1;" vertex="1" parent="1">
          <mxGeometry x="165" y="1250" width="120" height="60" as="geometry" />
        </mxCell>
        <mxCell id="F1ZpXmMgRoGmj6HplNzn-112" value="Manage&lt;div&gt;lecture&lt;/div&gt;" style="ellipse;whiteSpace=wrap;html=1;aspect=fixed;" vertex="1" parent="1">
          <mxGeometry x="370" y="1250" width="60" height="60" as="geometry" />
        </mxCell>
        <mxCell id="F1ZpXmMgRoGmj6HplNzn-113" value="lecture_tbl" style="shape=process;whiteSpace=wrap;html=1;backgroundOutline=1;" vertex="1" parent="1">
          <mxGeometry x="505" y="1250" width="120" height="60" as="geometry" />
        </mxCell>
        <mxCell id="F1ZpXmMgRoGmj6HplNzn-114" value="" style="endArrow=classic;html=1;rounded=0;entryX=0;entryY=0.5;entryDx=0;entryDy=0;" edge="1" parent="1" target="F1ZpXmMgRoGmj6HplNzn-112">
          <mxGeometry width="50" height="50" relative="1" as="geometry">
            <mxPoint x="285" y="1280" as="sourcePoint" />
            <mxPoint x="335" y="1230" as="targetPoint" />
          </mxGeometry>
        </mxCell>
        <mxCell id="F1ZpXmMgRoGmj6HplNzn-115" value="" style="endArrow=classic;html=1;rounded=0;" edge="1" parent="1" target="F1ZpXmMgRoGmj6HplNzn-113">
          <mxGeometry width="50" height="50" relative="1" as="geometry">
            <mxPoint x="435" y="1280" as="sourcePoint" />
            <mxPoint x="485" y="1230" as="targetPoint" />
          </mxGeometry>
        </mxCell>
        <mxCell id="F1ZpXmMgRoGmj6HplNzn-116" value="" style="endArrow=none;html=1;rounded=0;" edge="1" parent="1">
          <mxGeometry width="50" height="50" relative="1" as="geometry">
            <mxPoint y="1400" as="sourcePoint" />
            <mxPoint x="910" y="1400" as="targetPoint" />
          </mxGeometry>
        </mxCell>
        <mxCell id="F1ZpXmMgRoGmj6HplNzn-117" value="Flow chart for two number addition&lt;div&gt;&lt;br&gt;&lt;/div&gt;" style="text;html=1;align=center;verticalAlign=middle;resizable=0;points=[];autosize=1;strokeColor=none;fillColor=none;" vertex="1" parent="1">
          <mxGeometry x="85" y="1403" width="210" height="40" as="geometry" />
        </mxCell>
        <mxCell id="F1ZpXmMgRoGmj6HplNzn-118" value="Start" style="ellipse;whiteSpace=wrap;html=1;aspect=fixed;" vertex="1" parent="1">
          <mxGeometry x="325" y="1430" width="40" height="40" as="geometry" />
        </mxCell>
        <mxCell id="F1ZpXmMgRoGmj6HplNzn-119" value="Enter Number1 and Number2" style="rounded=0;whiteSpace=wrap;html=1;" vertex="1" parent="1">
          <mxGeometry x="295" y="1550" width="120" height="60" as="geometry" />
        </mxCell>
        <mxCell id="F1ZpXmMgRoGmj6HplNzn-120" value="" style="endArrow=classic;html=1;rounded=0;" edge="1" parent="1">
          <mxGeometry width="50" height="50" relative="1" as="geometry">
            <mxPoint x="340" y="1460" as="sourcePoint" />
            <mxPoint x="340" y="1560" as="targetPoint" />
          </mxGeometry>
        </mxCell>
        <mxCell id="F1ZpXmMgRoGmj6HplNzn-121" value="Add= Numbe1+Number2" style="rounded=0;whiteSpace=wrap;html=1;" vertex="1" parent="1">
          <mxGeometry x="285" y="1650" width="120" height="60" as="geometry" />
        </mxCell>
        <mxCell id="F1ZpXmMgRoGmj6HplNzn-122" value="Print Add" style="rounded=0;whiteSpace=wrap;html=1;" vertex="1" parent="1">
          <mxGeometry x="280" y="1750" width="120" height="60" as="geometry" />
        </mxCell>
        <mxCell id="F1ZpXmMgRoGmj6HplNzn-123" value="End" style="ellipse;whiteSpace=wrap;html=1;aspect=fixed;" vertex="1" parent="1">
          <mxGeometry x="315" y="1850" width="50" height="50" as="geometry" />
        </mxCell>
        <mxCell id="F1ZpXmMgRoGmj6HplNzn-124" value="" style="endArrow=classic;html=1;rounded=0;entryX=0.425;entryY=-0.05;entryDx=0;entryDy=0;entryPerimeter=0;" edge="1" parent="1" target="F1ZpXmMgRoGmj6HplNzn-121">
          <mxGeometry width="50" height="50" relative="1" as="geometry">
            <mxPoint x="340" y="1610" as="sourcePoint" />
            <mxPoint x="390" y="1560" as="targetPoint" />
          </mxGeometry>
        </mxCell>
        <mxCell id="F1ZpXmMgRoGmj6HplNzn-125" value="" style="endArrow=classic;html=1;rounded=0;entryX=0.4;entryY=0.067;entryDx=0;entryDy=0;entryPerimeter=0;" edge="1" parent="1" target="F1ZpXmMgRoGmj6HplNzn-122">
          <mxGeometry width="50" height="50" relative="1" as="geometry">
            <mxPoint x="330" y="1710" as="sourcePoint" />
            <mxPoint x="380" y="1660" as="targetPoint" />
          </mxGeometry>
        </mxCell>
        <mxCell id="F1ZpXmMgRoGmj6HplNzn-126" value="" style="endArrow=classic;html=1;rounded=0;entryX=0.3;entryY=0.2;entryDx=0;entryDy=0;entryPerimeter=0;" edge="1" parent="1" target="F1ZpXmMgRoGmj6HplNzn-123">
          <mxGeometry width="50" height="50" relative="1" as="geometry">
            <mxPoint x="330" y="1810" as="sourcePoint" />
            <mxPoint x="380" y="1760" as="targetPoint" />
          </mxGeometry>
        </mxCell>
        <mxCell id="F1ZpXmMgRoGmj6HplNzn-127" value="Start" style="ellipse;whiteSpace=wrap;html=1;aspect=fixed;" vertex="1" parent="1">
          <mxGeometry x="305" y="1970" width="50" height="50" as="geometry" />
        </mxCell>
        <mxCell id="F1ZpXmMgRoGmj6HplNzn-128" value="Enter Number" style="rounded=0;whiteSpace=wrap;html=1;" vertex="1" parent="1">
          <mxGeometry x="280" y="2040" width="120" height="60" as="geometry" />
        </mxCell>
        <mxCell id="F1ZpXmMgRoGmj6HplNzn-130" value="Number is Positive" style="rounded=0;whiteSpace=wrap;html=1;" vertex="1" parent="1">
          <mxGeometry x="440" y="2200" width="120" height="60" as="geometry" />
        </mxCell>
        <mxCell id="F1ZpXmMgRoGmj6HplNzn-131" value="Number is Negative" style="rounded=0;whiteSpace=wrap;html=1;" vertex="1" parent="1">
          <mxGeometry x="150" y="2200" width="120" height="60" as="geometry" />
        </mxCell>
        <mxCell id="F1ZpXmMgRoGmj6HplNzn-132" value="" style="endArrow=classic;html=1;rounded=0;exitX=0;exitY=0.5;exitDx=0;exitDy=0;" edge="1" parent="1" source="F1ZpXmMgRoGmj6HplNzn-143">
          <mxGeometry width="50" height="50" relative="1" as="geometry">
            <mxPoint x="290" y="2160" as="sourcePoint" />
            <mxPoint x="200" y="2200" as="targetPoint" />
            <Array as="points">
              <mxPoint x="200" y="2160" />
            </Array>
          </mxGeometry>
        </mxCell>
        <mxCell id="F1ZpXmMgRoGmj6HplNzn-133" value="true" style="edgeLabel;html=1;align=center;verticalAlign=middle;resizable=0;points=[];" vertex="1" connectable="0" parent="F1ZpXmMgRoGmj6HplNzn-132">
          <mxGeometry x="-0.0154" y="-2" relative="1" as="geometry">
            <mxPoint as="offset" />
          </mxGeometry>
        </mxCell>
        <mxCell id="F1ZpXmMgRoGmj6HplNzn-134" value="" style="endArrow=classic;html=1;rounded=0;exitX=1;exitY=0.5;exitDx=0;exitDy=0;" edge="1" parent="1" source="F1ZpXmMgRoGmj6HplNzn-143">
          <mxGeometry width="50" height="50" relative="1" as="geometry">
            <mxPoint x="410" y="2160" as="sourcePoint" />
            <mxPoint x="520" y="2200" as="targetPoint" />
            <Array as="points">
              <mxPoint x="520" y="2160" />
            </Array>
          </mxGeometry>
        </mxCell>
        <mxCell id="F1ZpXmMgRoGmj6HplNzn-135" value="false" style="edgeLabel;html=1;align=center;verticalAlign=middle;resizable=0;points=[];" vertex="1" connectable="0" parent="F1ZpXmMgRoGmj6HplNzn-134">
          <mxGeometry x="-0.2533" y="-1" relative="1" as="geometry">
            <mxPoint as="offset" />
          </mxGeometry>
        </mxCell>
        <mxCell id="F1ZpXmMgRoGmj6HplNzn-136" value="End" style="ellipse;whiteSpace=wrap;html=1;aspect=fixed;" vertex="1" parent="1">
          <mxGeometry x="315" y="2280" width="60" height="60" as="geometry" />
        </mxCell>
        <mxCell id="F1ZpXmMgRoGmj6HplNzn-137" value="" style="endArrow=classic;html=1;rounded=0;entryX=0.083;entryY=0.683;entryDx=0;entryDy=0;entryPerimeter=0;" edge="1" parent="1" target="F1ZpXmMgRoGmj6HplNzn-136">
          <mxGeometry width="50" height="50" relative="1" as="geometry">
            <mxPoint x="200" y="2260" as="sourcePoint" />
            <mxPoint x="250" y="2210" as="targetPoint" />
            <Array as="points">
              <mxPoint x="200" y="2320" />
            </Array>
          </mxGeometry>
        </mxCell>
        <mxCell id="F1ZpXmMgRoGmj6HplNzn-138" value="" style="endArrow=classic;html=1;rounded=0;entryX=0.683;entryY=0.983;entryDx=0;entryDy=0;entryPerimeter=0;" edge="1" parent="1" target="F1ZpXmMgRoGmj6HplNzn-130">
          <mxGeometry width="50" height="50" relative="1" as="geometry">
            <mxPoint x="370" y="2320" as="sourcePoint" />
            <mxPoint x="420" y="2270" as="targetPoint" />
            <Array as="points">
              <mxPoint x="522" y="2320" />
            </Array>
          </mxGeometry>
        </mxCell>
        <mxCell id="F1ZpXmMgRoGmj6HplNzn-139" value="" style="endArrow=classic;html=1;rounded=0;entryX=0.325;entryY=0.033;entryDx=0;entryDy=0;entryPerimeter=0;" edge="1" parent="1">
          <mxGeometry width="50" height="50" relative="1" as="geometry">
            <mxPoint x="330" y="2100" as="sourcePoint" />
            <mxPoint x="329" y="2131.98" as="targetPoint" />
          </mxGeometry>
        </mxCell>
        <mxCell id="F1ZpXmMgRoGmj6HplNzn-140" value="" style="endArrow=classic;html=1;rounded=0;entryX=0.417;entryY=0.167;entryDx=0;entryDy=0;entryPerimeter=0;" edge="1" parent="1" target="F1ZpXmMgRoGmj6HplNzn-128">
          <mxGeometry width="50" height="50" relative="1" as="geometry">
            <mxPoint x="330" y="2020" as="sourcePoint" />
            <mxPoint x="380" y="1970" as="targetPoint" />
          </mxGeometry>
        </mxCell>
        <mxCell id="F1ZpXmMgRoGmj6HplNzn-141" value="start" style="ellipse;whiteSpace=wrap;html=1;aspect=fixed;" vertex="1" parent="1">
          <mxGeometry x="295" y="2390" width="50" height="50" as="geometry" />
        </mxCell>
        <mxCell id="F1ZpXmMgRoGmj6HplNzn-142" value="i=1&lt;div&gt;&lt;br&gt;&lt;/div&gt;" style="rounded=0;whiteSpace=wrap;html=1;" vertex="1" parent="1">
          <mxGeometry x="275" y="2460" width="95" height="30" as="geometry" />
        </mxCell>
        <mxCell id="F1ZpXmMgRoGmj6HplNzn-143" value="Numbder &amp;lt;0" style="rhombus;whiteSpace=wrap;html=1;" vertex="1" parent="1">
          <mxGeometry x="290" y="2110" width="80" height="80" as="geometry" />
        </mxCell>
        <mxCell id="F1ZpXmMgRoGmj6HplNzn-145" value="i&amp;lt;=10" style="rhombus;whiteSpace=wrap;html=1;" vertex="1" parent="1">
          <mxGeometry x="283" y="2510" width="80" height="50" as="geometry" />
        </mxCell>
        <mxCell id="F1ZpXmMgRoGmj6HplNzn-147" value="&lt;div&gt;print i&lt;/div&gt;&lt;div&gt;i++&lt;/div&gt;" style="rounded=0;whiteSpace=wrap;html=1;" vertex="1" parent="1">
          <mxGeometry x="272.5" y="2610" width="95" height="30" as="geometry" />
        </mxCell>
        <mxCell id="F1ZpXmMgRoGmj6HplNzn-148" value="" style="endArrow=classic;html=1;rounded=0;" edge="1" parent="1" target="F1ZpXmMgRoGmj6HplNzn-147">
          <mxGeometry width="50" height="50" relative="1" as="geometry">
            <mxPoint x="320" y="2560" as="sourcePoint" />
            <mxPoint x="370" y="2510" as="targetPoint" />
          </mxGeometry>
        </mxCell>
        <mxCell id="F1ZpXmMgRoGmj6HplNzn-149" value="true" style="edgeLabel;html=1;align=center;verticalAlign=middle;resizable=0;points=[];" vertex="1" connectable="0" parent="F1ZpXmMgRoGmj6HplNzn-148">
          <mxGeometry x="-0.28" y="-4" relative="1" as="geometry">
            <mxPoint as="offset" />
          </mxGeometry>
        </mxCell>
        <mxCell id="F1ZpXmMgRoGmj6HplNzn-150" value="" style="endArrow=classic;html=1;rounded=0;" edge="1" parent="1">
          <mxGeometry width="50" height="50" relative="1" as="geometry">
            <mxPoint x="270" y="2620" as="sourcePoint" />
            <mxPoint x="290" y="2530" as="targetPoint" />
            <Array as="points">
              <mxPoint x="160" y="2620" />
              <mxPoint x="160" y="2530" />
            </Array>
          </mxGeometry>
        </mxCell>
        <mxCell id="F1ZpXmMgRoGmj6HplNzn-151" value="" style="endArrow=classic;html=1;rounded=0;exitX=1;exitY=0.5;exitDx=0;exitDy=0;" edge="1" parent="1" source="F1ZpXmMgRoGmj6HplNzn-145">
          <mxGeometry width="50" height="50" relative="1" as="geometry">
            <mxPoint x="360" y="2540" as="sourcePoint" />
            <mxPoint x="330" y="2720" as="targetPoint" />
            <Array as="points">
              <mxPoint x="440" y="2535" />
              <mxPoint x="440" y="2720" />
            </Array>
          </mxGeometry>
        </mxCell>
        <mxCell id="F1ZpXmMgRoGmj6HplNzn-153" value="false" style="edgeLabel;html=1;align=center;verticalAlign=middle;resizable=0;points=[];" vertex="1" connectable="0" parent="F1ZpXmMgRoGmj6HplNzn-151">
          <mxGeometry x="0.4754" y="-3" relative="1" as="geometry">
            <mxPoint as="offset" />
          </mxGeometry>
        </mxCell>
        <mxCell id="F1ZpXmMgRoGmj6HplNzn-152" value="End" style="ellipse;whiteSpace=wrap;html=1;aspect=fixed;" vertex="1" parent="1">
          <mxGeometry x="285" y="2710" width="60" height="60" as="geometry" />
        </mxCell>
      </root>
    </mxGraphModel>
  </diagram>
</mxfile>
